<?xml version="1.0" encoding="UTF-8"?>
<svg id="Camada_1" data-name="Camada 1" xmlns="http://www.w3.org/2000/svg" viewBox="0 0 1632.16 542.65">
  <defs>
    <style>
      .cls-1 {
        isolation: isolate;
      }

      .cls-2 {
        fill: #fff;
      }

      .cls-3 {
        fill: #c4e5e8;
      }
    </style>
  </defs>
  <g>
    <g>
      <path class="cls-3" d="M1161.47,218.94c2.38,16.23-1.39,27.38,18.34,34.3l-2.46,10.68c-17.55,2.18-32.91,7.05-50.05,13.39l-7.85-33.54c-14.29,19.49-23.65,27.21-47.34,31.5-3.48.63-7.07.13-10.71-.12-36.68-2.57-52.02-31.77-53.09-67.32l-.65-21.49.11-13.91-.1-25.26c-.06-15.44,1.88-29.35-15.39-36.06l1.66-10.46c18.45-4.49,34.92-11.66,50.37-22.65,2.61-1.85,4.8-3.06,8.17-2.19l.11,126.91,1.82,12.14c1.6,10.68,6.03,20.88,15.49,26.55,8.34,5,18.59,4.6,27.93.15,7.31-3.49,13.43-11.59,16.22-20.88,2.32-7.7,2.31-14.87,2.34-23l.08-20.21.11-22.75-.73-25.98c-.26-9.22-7.13-15.17-15.62-17.54l1.67-10.24c18.2-4.82,35.35-12.02,50.89-23.09,2.78-1.98,5.65-2.93,8.68-1.69v142.74Z"/>
      <path class="cls-3" d="M1315.12,161.71c-1.24-23.45-4.96-50.48-28.22-52.79-14.85-1.48-27.07,5.68-32.77,18.63-3.78,8.61-4.38,16.56-4.78,25.94l-.56,13.16.18,57.59,1.13,14.86c.69,9.05,5.74,16.3,14.52,19.01l-1.71,11.35-72.26.1-2.31-10.78c10.51-4.07,15.34-13.49,15.28-24.56l-.18-31.42.07-21.55-.39-52.72c-.06-8.61-7.1-14.9-14.56-17.22-.65-3.98-.09-7.71,1.8-11.13,19.21-4.29,35.48-13.16,51.43-24.46,1.22-.28,3.51-.58,4.3.05s1.33,3.18,1.33,4.28l.15,28.91c11.81-17.54,27.05-28.4,47.49-30.44l9.43.1c36.63.37,52.76,33.75,54.59,69.11l1.47,28.45,1.06,24.3,1.23,30.62c.48,11.92,4.67,23.21,16.91,27.09l-2.35,11.31h-72.53s-2.53-11.38-2.53-11.38c9.58-3.4,15.62-11.17,15.57-20.87l-.11-20.76-1.3-29-1.36-25.8Z"/>
      <path class="cls-3" d="M1621.74,272.11l-18.03-1.16-16.35-1.13-109.96-.27-2.5-15.19,98.71-150.21-33.89.34c-27.38.27-41.72,15.21-51.01,39.93l-11.5-4.22,10.16-57.94,19.13,1.97,15.22.91,103.86.44,1.27,15.31-97.74,148.55,39.36.3c28.37.21,40.97-16.93,52.28-41.71l11.41,4.01-10.42,60.08Z"/>
      <path class="cls-3" d="M1390.29,269.55l-2.42-11.18c9.18-3.42,15.15-11.38,15.16-21.84l.05-104.2c0-10.2-7.18-18.41-16.02-20.96l1.67-10.32c17.77-5.12,34.66-12.09,49.87-22.99,2.89-2.07,6.27-2.95,9.25-1.81l.26,160.3c.02,10.74,7.28,18.96,16.09,21.66l-2.26,11.3-71.66.05Z"/>
      <circle class="cls-3" cx="1424.99" cy="28.8" r="28.42"/>
      <path class="cls-3" d="M916.18,108.94l-2.82-39.23-77.1,195.92-23.04,4.01-43.92-109.15-35.77-89.38-1.05,11.5-1.35,21.57-1.3,22.78-1.22,21.47-1.21,21.43-1.4,25.29-.89,27.86.93,15.52c.58,9.56,6.71,16.32,15.75,19.94l-2.11,11.02h-56.09s-2.11-10.99-2.11-10.99c7.65-3.58,13.74-8.77,15.99-17.15,3.99-14.84,4.19-30.2,5.06-45.43l1.04-18.29,1.3-22.88,1.19-20.2,1.38-24,1.16-20.25,1.5-26.2-.3-13.11c-.23-10.14-5.25-17.57-15.96-20.16l2.27-12.37,64.49-.02,61.17,152.22,14.27,36.51,73.87-188.73,63.7.04,2.18,11.94c-8.67,2.74-14.63,8.6-14.88,17.6l-.6,22.05.83,21.52,1.36,21.45,1.21,18.97,1.27,20.23,1.27,20.22,1.27,20.23,1.17,17.82,1.3,18.75c.88,12.71,4.7,23.92,18.04,28.8l-2.52,11.46-75.95-.03-2.71-11.35c9-3.12,15.54-10.37,15.46-19.63l-.17-19.31-1.2-24.07-1.18-21.47-1.32-24.02-1.2-21.83-1.04-18.88Z"/>
    </g>
    <g>
      <path class="cls-2" d="M380.94,269.43c-1.36-3.99-1.8-8.4-1.47-12.32,10.42-1.89,14.94-16.08,14.92-26.36l-.26-97.94c-.03-10.41-6.4-18.86-15.93-20.9l1.66-10.76c18.34-4.54,34.87-11.59,49.93-23.12,2.59-1.98,5.74-2.72,9.3-1.73v151.8c0,13.97,2.7,25.93,15.43,29.77-.02,3.91-.79,8.22-2.08,11.57l-71.5-.02Z"/>
      <circle class="cls-2" cx="416.25" cy="28.43" r="28.43"/>
      <path class="cls-2" d="M159.54,271.39l-15.6-1.75-141.74-.24-2.2-11.81c15.08-5.38,15.5-19.72,15.45-35.64l-.12-44.34-.06-50.45.24-15.21v-27.77s.18-18.93.18-18.93c.14-15.58-1.08-29.79-15.62-35.88l2.13-11.85h74.78s2.49,11.79,2.49,11.79c-7.86,3.41-12.98,8.44-14.57,16.52-.91,4.65-2.22,10.42-2.22,15.74l-.05,186.84,39.62.39c12.39.12,23.98-2.49,35.02-8.21,9.57-6.81,17.76-15.58,23.21-26.08l8.79-16.93,12.35,4.49-12.43,69.55c-2.37.3-5.9.21-9.67-.21Z"/>
      <path class="cls-2" d="M354.03,237.76c1.52,8.06,6.62,13.17,15,14.56l-1.79,11.79c-12.39,1.52-23.01,3.54-34.23,7.61l-15.43,5.6-7.76-34.08c-14.15,21.82-36.23,35.53-60.11,32.13-18.48-2.64-34.81-12.96-42.67-30.59-4.48-10.05-8.04-21.54-8.12-32.91l-.53-76.95c-.07-9.48-5.3-20.27-14.98-23.29-.01-3.34.48-7.27,1.34-10.54,19.7-4.92,36.56-12.5,52.33-24.78,1.7-.24,4.2-.6,5.3-.08s1.29,3.88,1.29,5.45l-.21,93.45-.05,24.11c-.03,12.29,1.3,25.46,9.08,35.44,11.49,14.74,33.28,13.33,45.05-.86,5.87-7.08,9.37-16.39,9.43-26.1l.38-59.07c.1-16.32-.58-33.05-15.31-36.23l.75-11.12c17.82-4.89,34.57-10.96,49.14-22.5,2.98-2.36,5.91-3.59,9.98-2.56l.1,150.7,2.04,10.83Z"/>
      <path class="cls-2" d="M612.65,272.08l-11.37-.89-15.03-1.58-117.96-.23-2.53-15.27,41.53-63.22,57.07-86.55-38.53.3c-12.17.09-23.96,5.75-32.15,14.64-6.53,7.09-9.68,15.12-14.02,24.23-3.82-.78-7.15-1.96-11.2-3.88l10.17-58.02c17.65,3.05,33.5,3.36,50.76,3.2l37.87-.34,48.88.46,1.54,15.55-70.21,106.72-27.46,42.8,43-.46c15.63-.17,28.99-8.23,37.1-21.37l11.99-20.28,11.16,4.01-10.61,60.2Z"/>
    </g>
  </g>
  <g>
    <g>
      <rect class="cls-3" x="339.15" y="539.19" width="953.86" height="3.45"/>
      <rect class="cls-3" x="339.15" y="334.76" width="953.86" height="3.45"/>
    </g>
    <g class="cls-1">
      <path class="cls-2" d="M477.82,395.05c0-15.35,9.02-24.74,21.17-24.74,5.67,0,10.33,2.62,13.1,5.89l-3.27,3.71c-2.55-2.69-5.82-4.29-9.75-4.29-8.95,0-14.99,7.42-14.99,19.28s5.82,19.57,15.06,19.57c4.44,0,7.86-1.75,10.91-5.02l3.13,3.49c-3.86,4.37-8.29,6.84-14.48,6.84-11.93,0-20.88-9.17-20.88-24.74Z"/>
      <path class="cls-2" d="M556.18,371.19h6.84l16.15,47.73h-6.48l-4.51-14.55h-17.39l-4.58,14.55h-6.18l16.15-47.73ZM552.32,399.49h14.33l-2.26-7.28c-1.75-5.31-3.27-10.55-4.8-16.08h-.29c-1.46,5.53-2.98,10.77-4.73,16.08l-2.26,7.28Z"/>
      <path class="cls-2" d="M610.16,371.19h6.62l16.95,29.68c1.82,3.2,3.49,6.77,5.09,10.26h.29c-.36-4.95-.8-10.19-.8-15.13v-24.81h5.82v47.73h-6.62l-16.95-29.68c-1.82-3.2-3.64-6.77-5.17-10.26h-.29c.44,4.8.8,9.89.8,14.99v24.96h-5.75v-47.73Z"/>
      <path class="cls-2" d="M681.45,371.19h11.93c14.7,0,22.55,8.51,22.55,23.64s-7.86,24.08-22.26,24.08h-12.22v-47.73ZM692.95,413.97c11.13,0,16.73-7.06,16.73-19.13s-5.6-18.7-16.73-18.7h-5.46v37.83h5.46Z"/>
      <path class="cls-2" d="M750.42,371.19h6.04v47.73h-6.04v-47.73Z"/>
      <path class="cls-2" d="M793.78,371.19h11.93c14.7,0,22.55,8.51,22.55,23.64s-7.86,24.08-22.26,24.08h-12.22v-47.73ZM805.28,413.97c11.13,0,16.73-7.06,16.73-19.13s-5.6-18.7-16.73-18.7h-5.46v37.83h5.46Z"/>
      <path class="cls-2" d="M871.84,371.19h6.84l16.15,47.73h-6.48l-4.51-14.55h-17.39l-4.58,14.55h-6.18l16.15-47.73ZM867.99,399.49h14.33l-2.26-7.28c-1.75-5.31-3.27-10.55-4.8-16.08h-.29c-1.46,5.53-2.98,10.77-4.73,16.08l-2.26,7.28Z"/>
      <path class="cls-2" d="M931.72,376.28h-14.41v-5.09h34.92v5.09h-14.41v42.63h-6.11v-42.63Z"/>
      <path class="cls-2" d="M984.83,399.49v-28.3h6.04v28.45c0,11.28,4.87,14.84,11.13,14.84s11.28-3.57,11.28-14.84v-28.45h5.82v28.3c0,15.13-7.35,20.3-17.1,20.3s-17.17-5.17-17.17-20.3Z"/>
      <path class="cls-2" d="M1056.2,371.19h14.91c9.75,0,16.73,3.49,16.73,13.39,0,7.42-4.22,11.93-10.77,13.53l12.15,20.81h-6.84l-11.5-20.15h-8.66v20.15h-6.04v-47.73ZM1070.24,393.81c7.42,0,11.57-3.06,11.57-9.24s-4.15-8.51-11.57-8.51h-8v17.75h8Z"/>
      <path class="cls-2" d="M1131.35,371.19h6.84l16.15,47.73h-6.48l-4.51-14.55h-17.39l-4.58,14.55h-6.18l16.15-47.73ZM1127.49,399.49h14.33l-2.26-7.28c-1.75-5.31-3.27-10.55-4.8-16.08h-.29c-1.46,5.53-2.98,10.77-4.73,16.08l-2.26,7.28Z"/>
      <path class="cls-2" d="M445.63,458.49h13.6c10.69,0,17.9,3.56,17.9,14.04s-7.13,14.77-17.61,14.77h-7.86v18.92h-6.04v-47.73ZM458.8,482.35c8.29,0,12.3-3.06,12.3-9.82s-4.22-9.17-12.59-9.17h-6.84v18.99h7.13Z"/>
      <path class="cls-2" d="M508.27,482.35c0-15.35,9.24-24.74,21.9-24.74,6.62,0,10.99,2.91,13.75,5.89l-3.35,3.78c-2.4-2.55-5.46-4.37-10.26-4.37-9.6,0-15.79,7.42-15.79,19.28s5.67,19.57,15.86,19.57c3.42,0,6.69-1.09,8.58-2.84v-12.44h-10.11v-5.02h15.64v20.08c-3.06,3.2-8.29,5.53-14.7,5.53-12.59,0-21.54-9.17-21.54-24.74Z"/>
      <path class="cls-2" d="M576,499.38l4.07-2.69c2.04,3.49,4.73,5.09,8.22,5.09,5.24,0,7.78-2.98,7.78-10.33v-32.96h6.11v33.54c0,8.37-3.93,15.06-13.53,15.06-5.75,0-10.04-2.55-12.66-7.71Z"/>
      <path class="cls-2" d="M674.43,502.58c13.9-13.6,21.83-22.19,21.83-29.68,0-5.31-2.91-9.09-8.8-9.09-3.86,0-7.2,2.47-9.89,5.6l-3.35-3.27c3.86-4.37,8-7.2,13.97-7.2,8.58,0,13.9,5.46,13.9,13.6,0,9.02-8.15,17.39-19.43,28.96,2.55-.22,5.38-.44,7.78-.44h13.97v5.17h-29.97v-3.64Z"/>
      <path class="cls-2" d="M735.11,482.86c0-15.57,5.6-23.94,14.91-23.94s14.84,8.37,14.84,23.94-5.6,24.23-14.84,24.23-14.91-8.66-14.91-24.23ZM759.04,482.86c0-13.61-3.64-19.13-9.02-19.13s-9.09,5.53-9.09,19.13,3.64,19.42,9.09,19.42,9.02-5.82,9.02-19.42Z"/>
      <path class="cls-2" d="M795.2,502.58c13.9-13.6,21.83-22.19,21.83-29.68,0-5.31-2.91-9.09-8.8-9.09-3.86,0-7.2,2.47-9.89,5.6l-3.35-3.27c3.86-4.37,8-7.2,13.97-7.2,8.58,0,13.9,5.46,13.9,13.6,0,9.02-8.15,17.39-19.43,28.96,2.55-.22,5.38-.44,7.78-.44h13.97v5.17h-29.97v-3.64Z"/>
      <path class="cls-2" d="M856.17,484.75c0-18.62,8.44-25.83,17.68-25.83,5.02,0,8.58,2.11,11.2,4.95l-3.35,3.71c-1.89-2.25-4.73-3.64-7.64-3.64-6.48,0-11.93,5.02-12.22,19.72,2.91-3.57,7.06-5.82,10.84-5.82,8,0,13.24,4.8,13.24,14.33,0,8.88-6.26,14.91-13.75,14.91-9.09,0-16.01-7.42-16.01-22.34ZM861.99,488.46c.73,9.02,4.29,13.9,10.19,13.9,4.58,0,8.08-4.07,8.08-10.19s-2.84-9.82-8.58-9.82c-2.98,0-6.77,1.82-9.68,6.11Z"/>
      <path class="cls-2" d="M916.04,485.84h28.96v4.15h-28.96v-4.15Z"/>
      <path class="cls-2" d="M975.11,502.58c13.9-13.6,21.83-22.19,21.83-29.68,0-5.31-2.91-9.09-8.8-9.09-3.86,0-7.2,2.47-9.89,5.6l-3.35-3.27c3.86-4.37,8-7.2,13.97-7.2,8.58,0,13.9,5.46,13.9,13.6,0,9.02-8.15,17.39-19.43,28.96,2.55-.22,5.38-.44,7.78-.44h13.97v5.17h-29.97v-3.64Z"/>
      <path class="cls-2" d="M1035.79,482.86c0-15.57,5.6-23.94,14.91-23.94s14.84,8.37,14.84,23.94-5.6,24.23-14.84,24.23-14.91-8.66-14.91-24.23ZM1059.72,482.86c0-13.61-3.64-19.13-9.02-19.13s-9.09,5.53-9.09,19.13,3.64,19.42,9.09,19.42,9.02-5.82,9.02-19.42Z"/>
      <path class="cls-2" d="M1095.88,502.58c13.9-13.6,21.83-22.19,21.83-29.68,0-5.31-2.91-9.09-8.8-9.09-3.86,0-7.2,2.47-9.89,5.6l-3.35-3.27c3.86-4.37,8-7.2,13.97-7.2,8.58,0,13.9,5.46,13.9,13.6,0,9.02-8.15,17.39-19.43,28.96,2.55-.22,5.38-.44,7.78-.44h13.97v5.17h-29.97v-3.64Z"/>
      <path class="cls-2" d="M1156.34,494.36c0-6.04,4.37-10.19,8.73-12.51v-.29c-3.42-2.4-6.48-5.82-6.48-10.69,0-7.13,5.67-11.93,13.17-11.93,8.08,0,13.1,5.17,13.1,12.37,0,4.88-3.56,9.02-6.4,11.2v.29c4.15,2.4,8.08,5.67,8.08,11.93,0,6.91-5.97,12.37-14.99,12.37s-15.21-5.38-15.21-12.73ZM1180.78,494.5c0-5.97-5.89-8.15-12.59-10.84-3.71,2.47-6.48,5.89-6.48,10.11,0,5.17,4.29,8.88,9.97,8.88s9.09-3.35,9.09-8.15ZM1179.69,471.58c0-4.58-2.98-8.22-8.08-8.22-4.29,0-7.49,2.98-7.49,7.49,0,5.53,5.09,7.86,10.69,10.04,3.13-2.76,4.87-5.89,4.87-9.31Z"/>
    </g>
  </g>
</svg>